<svg width="121" height="156" viewBox="0 0 121 156" fill="none" xmlns="http://www.w3.org/2000/svg">
<g filter="url(#filter0_d)">
<path d="M5 147V1.16593H65.1631C68.5055 1.16602 115.856 48.101 115.856 48.101V147H5Z" fill="#F6F6F6"/>
<path d="M5 147V1.16593H65.1631C68.5055 1.16602 115.856 48.101 115.856 48.101V147H5Z" fill="url(#paint0_linear)"/>
<path d="M5 147V1.16593H65.1631C68.5055 1.16602 115.856 48.101 115.856 48.101V147H5Z" stroke="white"/>
</g>
<g filter="url(#filter1_d)">
<path d="M65.7208 47.5424C65.7208 47.5424 112.514 45.8661 115.857 48.1012C119.2 50.3363 62.8167 -2.32293 65.7208 1.1661C68.6249 4.65513 65.7208 47.5424 65.7208 47.5424Z" fill="#F0F0F0"/>
<path d="M65.7208 47.5424C65.7208 47.5424 112.514 45.8661 115.857 48.1012C119.2 50.3363 62.8167 -2.32293 65.7208 1.1661C68.6249 4.65513 65.7208 47.5424 65.7208 47.5424Z" fill="url(#paint1_linear)"/>
</g>
<defs>
<filter id="filter0_d" x="0.5" y="0.665894" width="119.856" height="154.834" filterUnits="userSpaceOnUse" color-interpolation-filters="sRGB">
<feFlood flood-opacity="0" result="BackgroundImageFix"/>
<feColorMatrix in="SourceAlpha" type="matrix" values="0 0 0 0 0 0 0 0 0 0 0 0 0 0 0 0 0 0 127 0"/>
<feOffset dy="4"/>
<feGaussianBlur stdDeviation="2"/>
<feColorMatrix type="matrix" values="0 0 0 0 0 0 0 0 0 0 0 0 0 0 0 0 0 0 0.25 0"/>
<feBlend mode="normal" in2="BackgroundImageFix" result="effect1_dropShadow"/>
<feBlend mode="normal" in="SourceGraphic" in2="effect1_dropShadow" result="shape"/>
</filter>
<filter id="filter1_d" x="63.6123" y="0" width="54.3875" height="51.1704" filterUnits="userSpaceOnUse" color-interpolation-filters="sRGB">
<feFlood flood-opacity="0" result="BackgroundImageFix"/>
<feColorMatrix in="SourceAlpha" type="matrix" values="0 0 0 0 0 0 0 0 0 0 0 0 0 0 0 0 0 0 127 0"/>
<feOffset dy="1"/>
<feGaussianBlur stdDeviation="1"/>
<feColorMatrix type="matrix" values="0 0 0 0 0 0 0 0 0 0 0 0 0 0 0 0 0 0 0.3 0"/>
<feBlend mode="normal" in2="BackgroundImageFix" result="effect1_dropShadow"/>
<feBlend mode="normal" in="SourceGraphic" in2="effect1_dropShadow" result="shape"/>
</filter>
<linearGradient id="paint0_linear" x1="60.428" y1="1.16589" x2="60.428" y2="147" gradientUnits="userSpaceOnUse">
<stop offset="0.322917" stop-color="white" stop-opacity="0.552083"/>
<stop offset="0.59375" stop-color="white" stop-opacity="0.552083"/>
<stop offset="0.9999" stop-color="white"/>
<stop offset="1" stop-color="white" stop-opacity="0"/>
</linearGradient>
<linearGradient id="paint1_linear" x1="90.8061" y1="1" x2="90.8061" y2="48.1704" gradientUnits="userSpaceOnUse">
<stop stop-color="white"/>
<stop offset="0.671875" stop-color="white" stop-opacity="0.166667"/>
<stop offset="1" stop-color="white" stop-opacity="0"/>
</linearGradient>
</defs>
</svg>
