<svg width="151" height="127" viewBox="0 0 151 127" fill="none" xmlns="http://www.w3.org/2000/svg">
<rect width="151" height="127" fill="#E5E5E5"/>
<rect x="-863.5" y="-390.5" width="1439" height="1023" fill="#EE8380"/>
<rect x="-716" y="-121" width="1144" height="610" rx="15" fill="white"/>
<g filter="url(#filter0_d)">
<path d="M4.00005 109.87V28.913C4 25.5652 7.03614 20.0869 13.1083 20.0869H139.106C143.964 20.0869 147 24.6521 147 28.913V109.87C147 115.044 144.268 119 137.892 119H11.5903C11.5903 119 4 119 4.00005 109.87Z" fill="#69C9FA"/>
<path d="M4 8.52175V28.3043L147 28.6086V20.3913C147 18.2608 143.66 11.5652 138.803 11.5652H69.5796C60.1677 11.5652 52.2739 -3.71514e-05 46.5053 0H12.5011C9.16136 -3.71521e-05 4 3.65218 4 8.52175Z" fill="#1888CA"/>
</g>
<rect x="-863.5" y="-390.5" width="1439" height="1023" stroke="white"/>
<defs>
<filter id="filter0_d" x="0" y="0" width="151" height="127" filterUnits="userSpaceOnUse" color-interpolation-filters="sRGB">
<feFlood flood-opacity="0" result="BackgroundImageFix"/>
<feColorMatrix in="SourceAlpha" type="matrix" values="0 0 0 0 0 0 0 0 0 0 0 0 0 0 0 0 0 0 127 0"/>
<feOffset dy="4"/>
<feGaussianBlur stdDeviation="2"/>
<feColorMatrix type="matrix" values="0 0 0 0 0 0 0 0 0 0 0 0 0 0 0 0 0 0 0.25 0"/>
<feBlend mode="normal" in2="BackgroundImageFix" result="effect1_dropShadow"/>
<feBlend mode="normal" in="SourceGraphic" in2="effect1_dropShadow" result="shape"/>
</filter>
</defs>
</svg>
