<svg width="160" height="133" viewBox="0 0 160 133" fill="none" xmlns="http://www.w3.org/2000/svg">
<path d="M5.37249e-05 122.795V32.3145C4.84209e-06 28.5728 3.39708 22.4501 10.1911 22.4501H151.168C156.603 22.4501 160 27.5524 160 32.3145V122.795C160 128.578 156.943 133 149.809 133H8.49262C8.49262 133 0 133 5.37249e-05 122.795Z" fill="#69C9FA"/>
<path d="M0 9.5243V31.6342L160 31.9744V22.7903C160 20.4091 156.263 12.9258 150.828 12.9258H73.3758C62.845 12.9258 54.0127 -4.15221e-05 47.5584 0H9.51167C5.77495 -4.15229e-05 0 4.08184 0 9.5243Z" fill="#1888CA"/>
</svg>
