<svg width="128" height="33" viewBox="0 0 128 33" fill="none" xmlns="http://www.w3.org/2000/svg">
<path d="M18.313 14.1865V7.95764" stroke="#2665DF" stroke-width="2"/>
<path d="M10.4112 6L2.68692 13.5955V26.4661H18.3131V13.6262L10.4112 6Z" fill="#CBCAC9"/>
<path d="M1 15.2542L2.68692 13.5955M20 15.2542L18.3131 13.6262M2.68692 13.5955L10.4112 6L18.3131 13.6262M2.68692 13.5955V26.4661H18.3131V13.6262" stroke="#2665DF"/>
<path d="M7.4812 27V17.7458H13.6962V27H7.4812Z" fill="#2665DF"/>
<path d="M42.46 15.67C42.4067 15.7433 42.3533 15.8 42.3 15.84C42.2467 15.88 42.1733 15.9 42.08 15.9C41.98 15.9 41.87 15.86 41.75 15.78C41.63 15.6933 41.48 15.6 41.3 15.5C41.1267 15.4 40.91 15.31 40.65 15.23C40.3967 15.1433 40.0833 15.1 39.71 15.1C39.21 15.1 38.77 15.19 38.39 15.37C38.01 15.5433 37.69 15.7967 37.43 16.13C37.1767 16.4633 36.9833 16.8667 36.85 17.34C36.7233 17.8133 36.66 18.3433 36.66 18.93C36.66 19.5433 36.73 20.09 36.87 20.57C37.01 21.0433 37.2067 21.4433 37.46 21.77C37.72 22.09 38.03 22.3367 38.39 22.51C38.7567 22.6767 39.1667 22.76 39.62 22.76C40.0533 22.76 40.41 22.71 40.69 22.61C40.97 22.5033 41.2 22.3867 41.38 22.26C41.5667 22.1333 41.72 22.02 41.84 21.92C41.9667 21.8133 42.09 21.76 42.21 21.76C42.3567 21.76 42.47 21.8167 42.55 21.93L43.05 22.58C42.83 22.8533 42.58 23.0867 42.3 23.28C42.02 23.4733 41.7167 23.6367 41.39 23.77C41.07 23.8967 40.7333 23.99 40.38 24.05C40.0267 24.11 39.6667 24.14 39.3 24.14C38.6667 24.14 38.0767 24.0233 37.53 23.79C36.99 23.5567 36.52 23.22 36.12 22.78C35.72 22.3333 35.4067 21.7867 35.18 21.14C34.9533 20.4933 34.84 19.7567 34.84 18.93C34.84 18.1767 34.9433 17.48 35.15 16.84C35.3633 16.2 35.67 15.65 36.07 15.19C36.4767 14.7233 36.9733 14.36 37.56 14.1C38.1533 13.84 38.8333 13.71 39.6 13.71C40.3133 13.71 40.94 13.8267 41.48 14.06C42.0267 14.2867 42.51 14.61 42.93 15.03L42.46 15.67ZM50.4508 19.44C49.6308 19.4667 48.9308 19.5333 48.3508 19.64C47.7774 19.74 47.3074 19.8733 46.9408 20.04C46.5808 20.2067 46.3174 20.4033 46.1508 20.63C45.9908 20.8567 45.9108 21.11 45.9108 21.39C45.9108 21.6567 45.9541 21.8867 46.0408 22.08C46.1274 22.2733 46.2441 22.4333 46.3908 22.56C46.5441 22.68 46.7208 22.77 46.9208 22.83C47.1274 22.8833 47.3474 22.91 47.5808 22.91C47.8941 22.91 48.1808 22.88 48.4408 22.82C48.7008 22.7533 48.9441 22.66 49.1708 22.54C49.4041 22.42 49.6241 22.2767 49.8308 22.11C50.0441 21.9433 50.2508 21.7533 50.4508 21.54V19.44ZM44.7008 15.3C45.2608 14.76 45.8641 14.3567 46.5108 14.09C47.1574 13.8233 47.8741 13.69 48.6608 13.69C49.2274 13.69 49.7308 13.7833 50.1708 13.97C50.6108 14.1567 50.9808 14.4167 51.2808 14.75C51.5808 15.0833 51.8074 15.4867 51.9608 15.96C52.1141 16.4333 52.1908 16.9533 52.1908 17.52V24H51.4008C51.2274 24 51.0941 23.9733 51.0008 23.92C50.9074 23.86 50.8341 23.7467 50.7808 23.58L50.5808 22.62C50.3141 22.8667 50.0541 23.0867 49.8008 23.28C49.5474 23.4667 49.2808 23.6267 49.0008 23.76C48.7208 23.8867 48.4208 23.9833 48.1008 24.05C47.7874 24.1233 47.4374 24.16 47.0508 24.16C46.6574 24.16 46.2874 24.1067 45.9408 24C45.5941 23.8867 45.2908 23.72 45.0308 23.5C44.7774 23.28 44.5741 23.0033 44.4208 22.67C44.2741 22.33 44.2008 21.93 44.2008 21.47C44.2008 21.07 44.3108 20.6867 44.5308 20.32C44.7508 19.9467 45.1074 19.6167 45.6008 19.33C46.0941 19.0433 46.7374 18.81 47.5308 18.63C48.3241 18.4433 49.2974 18.3367 50.4508 18.31V17.52C50.4508 16.7333 50.2808 16.14 49.9408 15.74C49.6008 15.3333 49.1041 15.13 48.4508 15.13C48.0108 15.13 47.6408 15.1867 47.3408 15.3C47.0474 15.4067 46.7908 15.53 46.5708 15.67C46.3574 15.8033 46.1708 15.9267 46.0108 16.04C45.8574 16.1467 45.7041 16.2 45.5508 16.2C45.4308 16.2 45.3274 16.17 45.2408 16.11C45.1541 16.0433 45.0808 15.9633 45.0208 15.87L44.7008 15.3ZM57.8755 24.16C57.0755 24.16 56.4588 23.9367 56.0255 23.49C55.5988 23.0433 55.3855 22.4 55.3855 21.56V15.36H54.1655C54.0588 15.36 53.9688 15.33 53.8955 15.27C53.8221 15.2033 53.7855 15.1033 53.7855 14.97V14.26L55.4455 14.05L55.8555 10.92C55.8755 10.82 55.9188 10.74 55.9855 10.68C56.0588 10.6133 56.1521 10.58 56.2655 10.58H57.1655V14.07H60.0955V15.36H57.1655V21.44C57.1655 21.8667 57.2688 22.1833 57.4755 22.39C57.6821 22.5967 57.9488 22.7 58.2755 22.7C58.4621 22.7 58.6221 22.6767 58.7555 22.63C58.8955 22.5767 59.0155 22.52 59.1155 22.46C59.2155 22.4 59.2988 22.3467 59.3655 22.3C59.4388 22.2467 59.5021 22.22 59.5555 22.22C59.6488 22.22 59.7321 22.2767 59.8055 22.39L60.3255 23.24C60.0188 23.5267 59.6488 23.7533 59.2155 23.92C58.7821 24.08 58.3355 24.16 57.8755 24.16ZM67.4234 19.44C66.6034 19.4667 65.9034 19.5333 65.3234 19.64C64.7501 19.74 64.2801 19.8733 63.9134 20.04C63.5534 20.2067 63.2901 20.4033 63.1234 20.63C62.9634 20.8567 62.8834 21.11 62.8834 21.39C62.8834 21.6567 62.9268 21.8867 63.0134 22.08C63.1001 22.2733 63.2168 22.4333 63.3634 22.56C63.5168 22.68 63.6934 22.77 63.8934 22.83C64.1001 22.8833 64.3201 22.91 64.5534 22.91C64.8668 22.91 65.1534 22.88 65.4134 22.82C65.6734 22.7533 65.9168 22.66 66.1434 22.54C66.3768 22.42 66.5968 22.2767 66.8034 22.11C67.0168 21.9433 67.2234 21.7533 67.4234 21.54V19.44ZM61.6734 15.3C62.2334 14.76 62.8368 14.3567 63.4834 14.09C64.1301 13.8233 64.8468 13.69 65.6334 13.69C66.2001 13.69 66.7034 13.7833 67.1434 13.97C67.5834 14.1567 67.9534 14.4167 68.2534 14.75C68.5534 15.0833 68.7801 15.4867 68.9334 15.96C69.0868 16.4333 69.1634 16.9533 69.1634 17.52V24H68.3734C68.2001 24 68.0668 23.9733 67.9734 23.92C67.8801 23.86 67.8068 23.7467 67.7534 23.58L67.5534 22.62C67.2868 22.8667 67.0268 23.0867 66.7734 23.28C66.5201 23.4667 66.2534 23.6267 65.9734 23.76C65.6934 23.8867 65.3934 23.9833 65.0734 24.05C64.7601 24.1233 64.4101 24.16 64.0234 24.16C63.6301 24.16 63.2601 24.1067 62.9134 24C62.5668 23.8867 62.2634 23.72 62.0034 23.5C61.7501 23.28 61.5468 23.0033 61.3934 22.67C61.2468 22.33 61.1734 21.93 61.1734 21.47C61.1734 21.07 61.2834 20.6867 61.5034 20.32C61.7234 19.9467 62.0801 19.6167 62.5734 19.33C63.0668 19.0433 63.7101 18.81 64.5034 18.63C65.2968 18.4433 66.2701 18.3367 67.4234 18.31V17.52C67.4234 16.7333 67.2534 16.14 66.9134 15.74C66.5734 15.3333 66.0768 15.13 65.4234 15.13C64.9834 15.13 64.6134 15.1867 64.3134 15.3C64.0201 15.4067 63.7634 15.53 63.5434 15.67C63.3301 15.8033 63.1434 15.9267 62.9834 16.04C62.8301 16.1467 62.6768 16.2 62.5234 16.2C62.4034 16.2 62.3001 16.17 62.2134 16.11C62.1268 16.0433 62.0534 15.9633 61.9934 15.87L61.6734 15.3ZM73.7148 9.27V24H71.9348V9.27H73.7148ZM85.3414 13.87L79.6914 26.99C79.6314 27.1233 79.5547 27.23 79.4614 27.31C79.3747 27.39 79.2381 27.43 79.0514 27.43H77.7314L79.5814 23.41L75.4014 13.87H76.9414C77.0947 13.87 77.2147 13.91 77.3014 13.99C77.3947 14.0633 77.4581 14.1467 77.4914 14.24L80.2014 20.62C80.3081 20.9 80.3981 21.1933 80.4714 21.5C80.5647 21.1867 80.6647 20.89 80.7714 20.61L83.4014 14.24C83.4414 14.1333 83.5081 14.0467 83.6014 13.98C83.7014 13.9067 83.8114 13.87 83.9314 13.87H85.3414ZM92.6381 15.54C92.5581 15.6867 92.4348 15.76 92.2681 15.76C92.1681 15.76 92.0548 15.7233 91.9281 15.65C91.8015 15.5767 91.6448 15.4967 91.4581 15.41C91.2781 15.3167 91.0615 15.2333 90.8081 15.16C90.5548 15.08 90.2548 15.04 89.9081 15.04C89.6081 15.04 89.3381 15.08 89.0981 15.16C88.8581 15.2333 88.6515 15.3367 88.4781 15.47C88.3115 15.6033 88.1815 15.76 88.0881 15.94C88.0015 16.1133 87.9581 16.3033 87.9581 16.51C87.9581 16.77 88.0315 16.9867 88.1781 17.16C88.3315 17.3333 88.5315 17.4833 88.7781 17.61C89.0248 17.7367 89.3048 17.85 89.6181 17.95C89.9315 18.0433 90.2515 18.1467 90.5781 18.26C90.9115 18.3667 91.2348 18.4867 91.5481 18.62C91.8615 18.7533 92.1415 18.92 92.3881 19.12C92.6348 19.32 92.8315 19.5667 92.9781 19.86C93.1315 20.1467 93.2081 20.4933 93.2081 20.9C93.2081 21.3667 93.1248 21.8 92.9581 22.2C92.7915 22.5933 92.5448 22.9367 92.2181 23.23C91.8915 23.5167 91.4915 23.7433 91.0181 23.91C90.5448 24.0767 89.9981 24.16 89.3781 24.16C88.6715 24.16 88.0315 24.0467 87.4581 23.82C86.8848 23.5867 86.3981 23.29 85.9981 22.93L86.4181 22.25C86.4715 22.1633 86.5348 22.0967 86.6081 22.05C86.6815 22.0033 86.7748 21.98 86.8881 21.98C87.0081 21.98 87.1348 22.0267 87.2681 22.12C87.4015 22.2133 87.5615 22.3167 87.7481 22.43C87.9415 22.5433 88.1748 22.6467 88.4481 22.74C88.7215 22.8333 89.0615 22.88 89.4681 22.88C89.8148 22.88 90.1181 22.8367 90.3781 22.75C90.6381 22.6567 90.8548 22.5333 91.0281 22.38C91.2015 22.2267 91.3281 22.05 91.4081 21.85C91.4948 21.65 91.5381 21.4367 91.5381 21.21C91.5381 20.93 91.4615 20.7 91.3081 20.52C91.1615 20.3333 90.9648 20.1767 90.7181 20.05C90.4715 19.9167 90.1881 19.8033 89.8681 19.71C89.5548 19.61 89.2315 19.5067 88.8981 19.4C88.5715 19.2933 88.2481 19.1733 87.9281 19.04C87.6148 18.9 87.3348 18.7267 87.0881 18.52C86.8415 18.3133 86.6415 18.06 86.4881 17.76C86.3415 17.4533 86.2681 17.0833 86.2681 16.65C86.2681 16.2633 86.3481 15.8933 86.5081 15.54C86.6681 15.18 86.9015 14.8667 87.2081 14.6C87.5148 14.3267 87.8915 14.11 88.3381 13.95C88.7848 13.79 89.2948 13.71 89.8681 13.71C90.5348 13.71 91.1315 13.8167 91.6581 14.03C92.1915 14.2367 92.6515 14.5233 93.0381 14.89L92.6381 15.54ZM98.5005 24.16C97.7005 24.16 97.0838 23.9367 96.6505 23.49C96.2238 23.0433 96.0105 22.4 96.0105 21.56V15.36H94.7905C94.6838 15.36 94.5938 15.33 94.5205 15.27C94.4471 15.2033 94.4105 15.1033 94.4105 14.97V14.26L96.0705 14.05L96.4805 10.92C96.5005 10.82 96.5438 10.74 96.6105 10.68C96.6838 10.6133 96.7771 10.58 96.8905 10.58H97.7905V14.07H100.72V15.36H97.7905V21.44C97.7905 21.8667 97.8938 22.1833 98.1005 22.39C98.3071 22.5967 98.5738 22.7 98.9005 22.7C99.0871 22.7 99.2471 22.6767 99.3805 22.63C99.5205 22.5767 99.6405 22.52 99.7405 22.46C99.8405 22.4 99.9238 22.3467 99.9905 22.3C100.064 22.2467 100.127 22.22 100.18 22.22C100.274 22.22 100.357 22.2767 100.43 22.39L100.95 23.24C100.644 23.5267 100.274 23.7533 99.8405 23.92C99.4071 24.08 98.9605 24.16 98.5005 24.16Z" fill="#3C3C3C"/>
</svg>
